<svg xmlns="http://www.w3.org/2000/svg" viewBox="0 0 108 108" width="108" height="108">
  <!-- 背景 - 使用浅蓝色模拟 system_accent1_100 -->
  <rect width="108" height="108" fill="#E3F2FD" rx="24"/>

  <!-- 图标主体 - 整体偏移 (25, 30) -->
  <g transform="translate(25, 30)">

    <!-- 太阳 - 位于左上方，偏移 (3, 3) -->
    <g transform="translate(3, 3)">
      <!-- 太阳光芒 - 使用主强调色蓝色 -->
      <g stroke="#1976D2" stroke-width="2.5" stroke-linecap="round" fill="none">
        <line x1="15" y1="1" x2="15" y2="4"/>
        <line x1="15" y1="26" x2="15" y2="29"/>
        <line x1="1" y1="15" x2="4" y2="15"/>
        <line x1="26" y1="15" x2="29" y2="15"/>
        <line x1="5.5" y1="5.5" x2="7.8" y2="7.8"/>
        <line x1="22.2" y1="22.2" x2="24.5" y2="24.5"/>
        <line x1="5.5" y1="24.5" x2="7.8" y2="22.2"/>
        <line x1="22.2" y1="7.8" x2="24.5" y2="5.5"/>
      </g>
      <!-- 太阳中心圆 -->
      <circle cx="15" cy="15" r="7" fill="#1976D2"/>
    </g>

    <!-- 云朵 - 位于右下方，偏移 (12, 14) -->
    <g transform="translate(12, 14)" fill="#64B5F6">
      <!-- 云朵主体 -->
      <path d="M36,20c0,-5 -4,-9 -9,-9c-0.5,0 -1,0.1 -1.5,0.2c-1.5,-4.5 -5.8,-7.7 -10.8,-7.7c-6.4,0 -11.5,5.2 -11.5,11.5c0,0.4 0,0.8 0.1,1.2C1.9,16.9 0,19.3 0,22c0,3.3 2.7,6 6,6h30c3.3,0 6,-2.7 6,-6S39.3,20 36,20z"/>
    </g>

  </g>
</svg>
